# xmcd
#
# Track frame offsets:
#	150
#	12273
#	24173
#	32078
#	41946
#	57477
#	65668
#	74729
#	85170
#	95328
#	103010
#	111019
#	121587
#	130928
#	139803
#	150102
#	161095
#	173017
#	182660
#	192454
#	203316
#
# Disc length: 2834 seconds
#
# Revision: 0
# Processed by: cddbd v1.5.2PL0 Copyright (c) Steve Scherf et al.
# Submitted via: EasyCDDAExtractor 4.6.9.1
#
DISCID=180b1015
DTITLE=Johnny Cash - The Complete Sun Recordings 1955 - 1958 - CD 3
DYEAR=2005
DGENRE=Country
TTITLE0=You're The Nearest Thing To Heaven
TTITLE1=The Story Of A Broken Heart (W-False Start)
TTITLE2=Sugartime
TTITLE3=Born To Lose
TTITLE4=Always Alone (W-False Starts)
TTITLE5=You Tell Me (W-False Start)
TTITLE6=Life Goes On
TTITLE7=You Win Again
TTITLE8=I Could Never Be Ashamed Of You
TTITLE9=Hey, Good Lookin'
TTITLE10=I Can't Help It (If I'm Still in Love with You)
TTITLE11=Cold, Cold Heart
TTITLE12=Blue Train
TTITLE13=Katy Too
TTITLE14=The Ways Of A Woman In Love
TTITLE15=Fools Hall Of Fame
TTITLE16=Thanks A Lot
TTITLE17=It's Just About Time
TTITLE18=I Forgot To Remember To Forget
TTITLE19=I Just Thought You'd Like To Know
TTITLE20=Down The Street To 301
EXTD=YEAR: 2005
EXTT0=
EXTT1=
EXTT2=
EXTT3=
EXTT4=
EXTT5=
EXTT6=
EXTT7=
EXTT8=
EXTT9=
EXTT10=
EXTT11=
EXTT12=
EXTT13=
EXTT14=
EXTT15=
EXTT16=
EXTT17=
EXTT18=
EXTT19=
EXTT20=
PLAYORDER=
